<?xml version="1.0" standalone="no"?>
<!DOCTYPE svg PUBLIC "-//W3C//DTD SVG 20010904//EN"
 "http://www.w3.org/TR/2001/REC-SVG-20010904/DTD/svg10.dtd">
<svg version="1.0" xmlns="http://www.w3.org/2000/svg"
 width="329.000000pt" height="309.000000pt" viewBox="0 0 329.000000 309.000000"
 preserveAspectRatio="xMidYMid meet">

<g transform="translate(0.000000,309.000000) scale(0.100000,-0.100000)"
fill="#000000" stroke="none">
<path d="M2108 2093 c6 -2 18 -2 25 0 6 3 1 5 -13 5 -14 0 -19 -2 -12 -5z"/>
<path d="M1976 2081 c-19 -7 -19 -8 2 -13 15 -4 22 -2 22 8 0 8 -1 14 -2 13
-2 0 -12 -4 -22 -8z"/>
<path d="M2140 2084 c-25 -2 -65 -7 -90 -10 -37 -5 -41 -8 -26 -16 13 -7 21
-7 26 2 4 7 28 11 62 9 30 -1 59 1 66 4 10 7 60 -1 107 -17 12 -5 11 -2 -5 7
-31 18 -79 25 -140 21z"/>
<path d="M2070 2052 c0 -4 17 -16 37 -26 31 -15 35 -15 24 -2 -10 12 -10 16
-2 16 7 0 9 5 6 10 -3 6 -11 10 -16 10 -6 0 -7 -4 -4 -10 8 -13 -1 -13 -26 0
-10 6 -19 7 -19 2z"/>
<path d="M2198 2053 c7 -3 16 -2 19 1 4 3 -2 6 -13 5 -11 0 -14 -3 -6 -6z"/>
<path d="M2333 2019 c15 -9 16 -12 2 -25 -8 -9 -15 -20 -15 -26 0 -6 9 0 19
13 19 24 13 49 -13 49 -6 0 -3 -5 7 -11z"/>
<path d="M1778 1979 c-115 -27 -272 -106 -388 -195 -69 -52 -103 -90 -50 -55
60 39 174 89 256 113 64 18 105 22 214 23 133 0 137 -1 201 -32 42 -21 75 -46
93 -70 l28 -38 -5 56 c-9 94 -54 162 -129 194 -41 16 -158 19 -220 4z"/>
<path d="M2364 1984 c-19 -8 -4 -51 22 -63 29 -13 31 -1 5 23 -11 10 -17 24
-14 32 5 15 5 15 -13 8z"/>
<path d="M2200 1942 c11 -13 20 -31 20 -38 0 -8 5 -14 10 -14 6 0 3 14 -6 31
-12 24 -13 33 -4 39 7 4 2 8 -14 8 l-25 0 19 -26z"/>
<path d="M2525 1950 c52 -206 -17 -385 -238 -616 -162 -170 -379 -337 -705
-541 -45 -28 -16 -23 65 11 122 52 331 158 430 220 217 134 385 301 466 461
78 155 76 340 -3 458 -20 29 -21 29 -15 7z"/>
<path d="M2235 1850 c4 -19 11 -42 16 -50 7 -10 8 -7 4 11 -4 14 -7 33 -9 42
-1 9 -6 20 -10 24 -5 4 -5 -8 -1 -27z"/>
<path d="M2411 1844 c0 -11 3 -14 6 -6 3 7 2 16 -1 19 -3 4 -6 -2 -5 -13z"/>
<path d="M2412 1790 c0 -14 2 -19 5 -12 2 6 2 18 0 25 -3 6 -5 1 -5 -13z"/>
<path d="M2262 1755 c0 -16 2 -22 5 -12 2 9 2 23 0 30 -3 6 -5 -1 -5 -18z"/>
<path d="M1265 1692 c-11 -2 -55 -44 -98 -93 -43 -49 -82 -89 -86 -89 -4 0
-20 40 -36 90 l-30 90 -87 0 c-49 0 -88 -2 -88 -5 0 -3 25 -71 55 -151 45
-120 53 -150 43 -163 -12 -16 -92 -102 -205 -222 -34 -37 -60 -69 -56 -73 3
-3 41 -6 83 -6 l78 0 87 96 c48 52 91 91 95 87 4 -4 22 -47 40 -95 l33 -88 83
0 c61 0 84 3 84 13 0 6 -25 75 -55 152 -30 77 -55 142 -55 146 0 3 61 73 135
154 74 82 134 149 132 150 -5 5 -134 11 -152 7z"/>
<path d="M1422 1533 c-23 -87 -60 -223 -81 -303 -22 -80 -37 -148 -35 -152 3
-5 38 -8 79 -8 l74 0 12 43 c39 148 79 290 82 293 2 2 23 -65 47 -148 23 -84
44 -156 47 -161 2 -4 60 60 129 142 128 155 150 177 140 145 -21 -71 -76 -285
-76 -298 0 -35 31 -12 85 61 71 98 117 179 151 268 27 73 54 195 54 246 l0 29
-72 0 -73 0 -130 -161 -129 -160 -12 33 c-6 18 -26 90 -45 161 l-33 127 -86 0
-86 0 -42 -157z"/>
<path d="M2241 1664 c0 -11 3 -14 6 -6 3 7 2 16 -1 19 -3 4 -6 -2 -5 -13z"/>
<path d="M2350 1659 c-8 -15 -8 -24 0 -34 8 -9 7 -17 -5 -28 -8 -9 -15 -20
-14 -24 4 -21 -2 -33 -15 -33 -8 0 -17 -4 -20 -9 -3 -5 2 -8 12 -7 10 0 28 23
45 54 25 50 38 95 17 62 -14 -22 -23 -5 -10 19 6 12 8 21 6 21 -3 0 -10 -9
-16 -21z"/>
<path d="M2231 1594 c0 -11 3 -14 6 -6 3 7 2 16 -1 19 -3 4 -6 -2 -5 -13z"/>
<path d="M2220 1555 c0 -8 7 -11 20 -8 11 3 20 8 20 12 0 4 -9 7 -20 8 -11 1
-20 -4 -20 -12z"/>
<path d="M2207 1511 c-4 -17 -3 -21 5 -13 5 5 8 16 6 23 -3 8 -7 3 -11 -10z"/>
<path d="M2260 1493 c0 -11 -6 -25 -12 -33 -11 -12 -10 -12 5 -1 19 15 24 2 5
-17 -6 -6 -9 -14 -6 -17 3 -3 13 6 22 20 10 15 12 25 5 25 -6 0 -9 7 -6 15 4
8 2 17 -3 20 -6 4 -10 -2 -10 -12z"/>
<path d="M2177 1435 c-9 -19 -15 -35 -13 -35 2 0 13 16 25 35 11 19 17 35 13
35 -5 0 -16 -16 -25 -35z"/>
<path d="M2203 1420 c-3 -11 -9 -20 -14 -20 -5 0 -9 -5 -9 -11 0 -8 5 -8 15 1
8 7 15 19 15 27 0 8 4 12 9 8 5 -3 12 -1 16 5 3 5 -1 10 -10 10 -9 0 -19 -9
-22 -20z"/>
<path d="M2209 1380 c-18 -16 -31 -32 -28 -35 3 -2 21 11 39 30 41 43 34 46
-11 5z"/>
<path d="M2137 1359 c-14 -26 -15 -30 -2 -25 8 3 15 0 15 -7 -1 -17 -29 -52
-36 -44 -4 4 -1 13 6 22 8 10 9 15 1 15 -12 0 -12 -1 -16 -37 -3 -31 5 -29 41
10 28 29 36 66 12 51 -7 -5 -9 2 -4 20 8 34 5 33 -17 -5z"/>
<path d="M2076 1238 c3 -5 10 -6 15 -3 13 9 11 12 -6 12 -8 0 -12 -4 -9 -9z"/>
<path d="M2042 1210 c-7 -11 -9 -20 -4 -20 10 0 32 22 32 32 0 15 -15 8 -28
-12z"/>
</g>
</svg>
